<svg width="384" height="151" viewBox="0 0 384 151" fill="none" xmlns="http://www.w3.org/2000/svg">
<ellipse cx="108.355" cy="70" rx="50.1168" ry="50" fill="#020202"/>
<path d="M95.0624 49.52H92.6624C91.9584 47.664 91.2224 45.488 90.4544 42.992C89.7504 40.496 89.1424 38.128 88.6304 35.888C90.8704 33.968 93.5584 32.464 96.6944 31.376C99.8304 30.224 103.222 29.648 106.87 29.648C110.07 29.648 112.822 30.096 115.126 30.992C117.43 31.888 119.318 33.104 120.79 34.64C122.326 36.176 123.446 37.968 124.15 40.016C124.854 42 125.206 44.08 125.206 46.256C125.206 49.84 124.374 53.52 122.71 57.296C121.046 61.072 118.966 64.752 116.47 68.336C114.038 71.856 111.382 75.184 108.502 78.32C105.622 81.456 102.966 84.208 100.534 86.576L96.5024 90.32V90.704L101.878 90.128H118.39L123.094 79.376H125.494C125.622 80.784 125.75 82.32 125.878 83.984C126.006 85.648 126.102 87.344 126.166 89.072C126.294 90.736 126.39 92.368 126.454 93.968C126.518 95.504 126.55 96.848 126.55 98H86.9024V94.928C88.3104 93.456 90.0064 91.664 91.9904 89.552C94.0384 87.44 96.1504 85.104 98.3264 82.544C100.502 79.984 102.646 77.264 104.758 74.384C106.934 71.504 108.854 68.592 110.518 65.648C112.182 62.64 113.526 59.664 114.55 56.72C115.638 53.776 116.182 50.96 116.182 48.272C116.182 46.416 115.926 44.656 115.414 42.992C114.966 41.328 114.262 39.888 113.302 38.672C112.342 37.392 111.158 36.4 109.75 35.696C108.406 34.992 106.838 34.64 105.046 34.64C103.702 34.64 102.518 34.736 101.494 34.928C100.47 35.12 99.3504 35.408 98.1344 35.792L95.0624 49.52Z" fill="white"/>
<path d="M39.36 85.424C39.36 86.832 39.392 88.048 39.456 89.072C39.52 90.096 39.584 91.184 39.648 92.336L46.272 93.296V95.312C44.672 96.144 42.88 96.88 40.896 97.52C38.976 98.16 37.12 98.64 35.328 98.96H32.928C32.288 97.488 31.904 95.888 31.776 94.16C31.648 92.368 31.552 90.416 31.488 88.304H31.008C30.752 89.584 30.24 90.896 29.472 92.24C28.768 93.52 27.808 94.672 26.592 95.696C25.44 96.72 24.064 97.552 22.464 98.192C20.864 98.832 19.04 99.152 16.992 99.152C13.088 99.152 9.888 97.968 7.392 95.6C4.96 93.232 3.744 90.128 3.744 86.288C3.744 83.344 4.32 80.944 5.472 79.088C6.688 77.168 8.448 75.664 10.752 74.576C13.056 73.488 15.904 72.72 19.296 72.272C22.688 71.76 26.624 71.376 31.104 71.12C31.36 68.368 31.424 65.904 31.296 63.728C31.232 61.488 30.88 59.6 30.24 58.064C29.664 56.464 28.768 55.248 27.552 54.416C26.4 53.52 24.864 53.072 22.944 53.072C22.048 53.072 21.024 53.136 19.872 53.264C18.784 53.328 17.696 53.584 16.608 54.032L12.096 65.552H9.6C8.96 63.632 8.384 61.648 7.872 59.6C7.424 57.552 7.136 55.536 7.008 53.552C9.44 52.08 12.128 50.928 15.072 50.096C18.08 49.264 21.408 48.848 25.056 48.848C28.32 48.848 30.912 49.328 32.832 50.288C34.816 51.184 36.32 52.368 37.344 53.84C38.368 55.312 39.04 56.944 39.36 58.736C39.68 60.528 39.84 62.32 39.84 64.112C39.84 67.952 39.744 71.664 39.552 75.248C39.424 78.768 39.36 82.16 39.36 85.424ZM20.832 93.2C22.432 93.2 23.84 92.88 25.056 92.24C26.272 91.6 27.296 90.832 28.128 89.936C28.96 89.04 29.632 88.144 30.144 87.248C30.656 86.288 31.008 85.488 31.2 84.848V74.768C27.488 74.768 24.448 74.96 22.08 75.344C19.712 75.728 17.856 76.336 16.512 77.168C15.168 78 14.24 79.056 13.728 80.336C13.216 81.552 12.96 82.96 12.96 84.56C12.96 87.312 13.664 89.456 15.072 90.992C16.48 92.464 18.4 93.2 20.832 93.2ZM30.336 41.072L28.224 42.704L10.368 28.4V26.48C10.752 26.16 11.36 25.872 12.192 25.616C13.088 25.296 14.048 25.04 15.072 24.848C16.096 24.656 17.056 24.528 17.952 24.464C18.912 24.336 19.648 24.304 20.16 24.368L30.336 41.072ZM190.436 98H169.124V95.6C171.236 94.576 173.348 93.808 175.46 93.296V32.528L168.164 31.76V29.264C169.828 28.496 171.908 27.824 174.404 27.248C176.9 26.672 179.332 26.192 181.7 25.808H184.1V93.296C186.212 93.808 188.324 94.576 190.436 95.6V98ZM197.999 74C197.999 69.968 198.511 66.416 199.535 63.344C200.623 60.208 202.159 57.584 204.143 55.472C206.127 53.296 208.495 51.664 211.247 50.576C214.063 49.424 217.167 48.848 220.559 48.848C224.527 48.848 227.951 49.456 230.831 50.672C233.711 51.888 236.047 53.616 237.839 55.856C239.695 58.032 241.039 60.656 241.871 63.728C242.767 66.8 243.215 70.224 243.215 74C243.215 82.064 241.167 88.272 237.071 92.624C232.975 96.976 227.471 99.152 220.559 99.152C216.719 99.152 213.391 98.576 210.575 97.424C207.759 96.208 205.423 94.512 203.567 92.336C201.711 90.096 200.303 87.44 199.343 84.368C198.447 81.232 197.999 77.776 197.999 74ZM207.215 74C207.215 76.88 207.471 79.6 207.983 82.16C208.559 84.72 209.423 86.96 210.575 88.88C211.791 90.736 213.359 92.208 215.279 93.296C217.199 94.384 219.503 94.928 222.191 94.928C225.647 94.928 228.463 93.232 230.639 89.84C232.879 86.448 233.999 81.168 233.999 74C233.999 71.056 233.711 68.336 233.135 65.84C232.623 63.28 231.791 61.072 230.639 59.216C229.487 57.296 228.015 55.792 226.223 54.704C224.431 53.616 222.287 53.072 219.791 53.072C216.015 53.072 212.975 54.768 210.671 58.16C208.367 61.552 207.215 66.832 207.215 74ZM251.157 54.8C250.197 54.544 249.301 54.224 248.469 53.84C247.701 53.456 246.901 53.008 246.069 52.496V50H266.133V52.4C264.789 53.296 262.965 54.096 260.661 54.8L272.949 83.216L274.773 89.168H274.965L276.405 83.12L285.525 54.8C283.605 54.416 281.845 53.648 280.245 52.496V50H296.661V52.496C295.317 53.392 293.493 54.16 291.189 54.8L276.213 98C274.677 102.096 273.205 105.392 271.797 107.888C270.453 110.448 269.077 112.464 267.669 113.936C266.325 115.408 264.917 116.464 263.445 117.104C262.037 117.808 260.501 118.32 258.837 118.64C258.133 117.424 257.493 116.08 256.917 114.608C256.405 113.136 255.957 111.728 255.573 110.384L256.821 108.08H266.805C267.189 107.568 267.509 107.056 267.765 106.544C268.085 106.096 268.405 105.52 268.725 104.816C269.045 104.112 269.397 103.216 269.781 102.128C270.165 101.04 270.613 99.664 271.125 98L251.157 54.8ZM338.41 91.28C337.898 92.368 337.098 93.392 336.01 94.352C334.922 95.312 333.674 96.144 332.266 96.848C330.858 97.552 329.322 98.096 327.658 98.48C325.994 98.928 324.298 99.152 322.57 99.152C318.794 99.152 315.466 98.576 312.586 97.424C309.706 96.208 307.306 94.512 305.386 92.336C303.466 90.096 301.994 87.44 300.97 84.368C300.01 81.296 299.53 77.84 299.53 74C299.53 65.808 301.418 59.568 305.194 55.28C308.97 50.992 314.314 48.848 321.226 48.848C323.466 48.848 325.674 49.168 327.85 49.808C330.026 50.384 331.946 51.376 333.61 52.784C335.338 54.192 336.714 56.08 337.738 58.448C338.826 60.752 339.37 63.632 339.37 67.088C339.37 68.176 339.306 69.296 339.178 70.448C339.114 71.536 338.954 72.72 338.698 74H308.746C308.746 76.688 309.066 79.216 309.706 81.584C310.41 83.888 311.434 85.904 312.778 87.632C314.122 89.36 315.818 90.736 317.866 91.76C319.914 92.72 322.314 93.2 325.066 93.2C327.306 93.2 329.578 92.88 331.882 92.24C334.186 91.6 335.914 90.768 337.066 89.744L338.41 91.28ZM320.842 53.072C317.194 53.072 314.41 54.32 312.49 56.816C310.57 59.248 309.418 63.568 309.034 69.776H330.154C330.218 69.2 330.25 68.656 330.25 68.144C330.314 67.568 330.346 67.024 330.346 66.512C330.346 62.416 329.578 59.152 328.042 56.72C326.506 54.288 324.106 53.072 320.842 53.072ZM367.299 57.2C366.595 57.584 365.699 58.384 364.611 59.6C363.587 60.752 362.659 62.48 361.827 64.784V93.296C363.107 93.424 364.387 93.68 365.667 94.064C366.947 94.384 368.227 94.896 369.507 95.6V98H346.851V95.6C348.003 94.96 349.091 94.48 350.115 94.16C351.139 93.84 352.163 93.552 353.187 93.296V55.568L346.851 54.8V52.304C348.899 51.408 351.011 50.704 353.187 50.192C355.363 49.616 357.443 49.168 359.427 48.848H361.827V59.024H362.211C362.787 57.744 363.587 56.464 364.611 55.184C365.699 53.904 366.915 52.752 368.259 51.728C369.667 50.704 371.171 49.936 372.771 49.424C374.435 48.848 376.131 48.656 377.859 48.848C378.307 49.68 378.691 50.608 379.011 51.632C379.395 52.592 379.747 53.616 380.067 54.704V57.2H367.299Z" fill="#888888"/>
<path d="M127.523 144H122.387V143.4C122.547 143.304 122.739 143.208 122.963 143.112C123.203 143 123.483 142.904 123.803 142.824V137.28C123.803 136.64 123.771 136.064 123.707 135.552C123.659 135.04 123.555 134.616 123.395 134.28C123.251 133.928 123.035 133.664 122.747 133.488C122.459 133.296 122.083 133.2 121.619 133.2C121.267 133.2 120.939 133.272 120.635 133.416C120.347 133.56 120.083 133.752 119.843 133.992C119.619 134.232 119.419 134.504 119.243 134.808C119.083 135.112 118.955 135.432 118.859 135.768V142.824C119.115 142.904 119.355 142.992 119.579 143.088C119.819 143.168 120.051 143.272 120.275 143.4V144H115.115V143.4C115.339 143.288 115.587 143.184 115.859 143.088C116.131 142.992 116.411 142.904 116.699 142.824V133.392L115.115 133.2V132.576C115.627 132.352 116.147 132.176 116.675 132.048C117.219 131.904 117.747 131.792 118.259 131.712H118.859V134.424H118.883C119.139 133.672 119.571 133.032 120.179 132.504C120.803 131.976 121.571 131.712 122.483 131.712C122.867 131.712 123.235 131.752 123.587 131.832C123.939 131.912 124.267 132.064 124.571 132.288C124.875 132.496 125.131 132.792 125.339 133.176C125.547 133.56 125.699 134.056 125.795 134.664C126.083 133.784 126.547 133.072 127.187 132.528C127.827 131.984 128.627 131.712 129.587 131.712C130.179 131.712 130.691 131.792 131.123 131.952C131.571 132.096 131.939 132.36 132.227 132.744C132.515 133.128 132.723 133.648 132.851 134.304C132.995 134.96 133.067 135.792 133.067 136.8V142.824C133.611 142.92 134.139 143.112 134.651 143.4V144H129.491V143.4C129.971 143.144 130.443 142.952 130.907 142.824V136.848C130.907 136.272 130.875 135.76 130.811 135.312C130.763 134.864 130.659 134.488 130.499 134.184C130.339 133.864 130.115 133.624 129.827 133.464C129.539 133.288 129.155 133.2 128.675 133.2C127.907 133.2 127.307 133.464 126.875 133.992C126.459 134.52 126.155 135.192 125.963 136.008V142.824C126.523 142.984 127.043 143.176 127.523 143.4V144ZM144.93 140.856C144.93 141.208 144.938 141.512 144.954 141.768C144.97 142.024 144.986 142.296 145.002 142.584L146.658 142.824V143.328C146.258 143.536 145.81 143.72 145.314 143.88C144.834 144.04 144.37 144.16 143.922 144.24H143.322C143.162 143.872 143.066 143.472 143.034 143.04C143.002 142.592 142.978 142.104 142.962 141.576H142.842C142.778 141.896 142.65 142.224 142.458 142.56C142.282 142.88 142.042 143.168 141.738 143.424C141.45 143.68 141.106 143.888 140.706 144.048C140.306 144.208 139.85 144.288 139.338 144.288C138.362 144.288 137.562 143.992 136.938 143.4C136.33 142.808 136.026 142.032 136.026 141.072C136.026 140.336 136.17 139.736 136.458 139.272C136.762 138.792 137.202 138.416 137.778 138.144C138.354 137.872 139.066 137.68 139.914 137.568C140.762 137.44 141.746 137.344 142.866 137.28C142.93 136.592 142.946 135.976 142.914 135.432C142.898 134.872 142.81 134.4 142.65 134.016C142.506 133.616 142.282 133.312 141.978 133.104C141.69 132.88 141.306 132.768 140.826 132.768C140.602 132.768 140.346 132.784 140.058 132.816C139.786 132.832 139.514 132.896 139.242 133.008L138.114 135.888H137.49C137.33 135.408 137.186 134.912 137.058 134.4C136.946 133.888 136.874 133.384 136.842 132.888C137.45 132.52 138.122 132.232 138.858 132.024C139.61 131.816 140.442 131.712 141.354 131.712C142.17 131.712 142.818 131.832 143.298 132.072C143.794 132.296 144.17 132.592 144.426 132.96C144.682 133.328 144.85 133.736 144.93 134.184C145.01 134.632 145.05 135.08 145.05 135.528C145.05 136.488 145.026 137.416 144.978 138.312C144.946 139.192 144.93 140.04 144.93 140.856ZM140.298 142.8C140.698 142.8 141.05 142.72 141.354 142.56C141.658 142.4 141.914 142.208 142.122 141.984C142.33 141.76 142.498 141.536 142.626 141.312C142.754 141.072 142.842 140.872 142.89 140.712V138.192C141.962 138.192 141.202 138.24 140.61 138.336C140.018 138.432 139.554 138.584 139.218 138.792C138.882 139 138.65 139.264 138.522 139.584C138.394 139.888 138.33 140.24 138.33 140.64C138.33 141.328 138.506 141.864 138.858 142.248C139.21 142.616 139.69 142.8 140.298 142.8ZM153.519 144H148.191V143.4C148.431 143.272 148.679 143.168 148.935 143.088C149.191 142.992 149.471 142.904 149.775 142.824V133.392L148.191 133.2V132.576C148.655 132.384 149.159 132.216 149.703 132.072C150.247 131.928 150.791 131.808 151.335 131.712H151.935V142.824C152.255 142.904 152.543 142.992 152.799 143.088C153.055 143.168 153.295 143.272 153.519 143.4V144ZM149.319 127.92C149.319 127.488 149.455 127.144 149.727 126.888C150.015 126.632 150.391 126.504 150.855 126.504C151.319 126.504 151.687 126.632 151.959 126.888C152.231 127.144 152.367 127.488 152.367 127.92C152.367 128.352 152.231 128.696 151.959 128.952C151.687 129.192 151.319 129.312 150.855 129.312C150.391 129.312 150.015 129.192 149.727 128.952C149.455 128.696 149.319 128.352 149.319 127.92ZM161.506 141.264C161.506 140.816 161.362 140.44 161.074 140.136C160.802 139.816 160.45 139.52 160.018 139.248C159.586 138.976 159.122 138.712 158.626 138.456C158.146 138.2 157.69 137.904 157.258 137.568C156.826 137.216 156.466 136.816 156.178 136.368C155.906 135.92 155.77 135.368 155.77 134.712C155.77 134.28 155.866 133.88 156.058 133.512C156.266 133.144 156.538 132.832 156.874 132.576C157.21 132.304 157.602 132.096 158.05 131.952C158.498 131.792 158.978 131.712 159.49 131.712C160.354 131.712 161.058 131.76 161.602 131.856C162.162 131.952 162.698 132.088 163.21 132.264C163.146 132.776 163.066 133.296 162.97 133.824C162.89 134.336 162.77 134.864 162.61 135.408H162.01L161.098 132.96C160.906 132.88 160.69 132.832 160.45 132.816C160.21 132.784 159.962 132.768 159.706 132.768C159.418 132.768 159.162 132.824 158.938 132.936C158.73 133.032 158.546 133.16 158.386 133.32C158.242 133.48 158.13 133.664 158.05 133.872C157.97 134.08 157.93 134.288 157.93 134.496C157.93 134.928 158.066 135.304 158.338 135.624C158.626 135.928 158.986 136.216 159.418 136.488C159.85 136.744 160.306 137 160.786 137.256C161.282 137.512 161.746 137.8 162.178 138.12C162.61 138.44 162.962 138.816 163.234 139.248C163.522 139.664 163.666 140.168 163.666 140.76C163.666 141.304 163.546 141.792 163.306 142.224C163.082 142.656 162.762 143.024 162.346 143.328C161.946 143.632 161.474 143.864 160.93 144.024C160.402 144.2 159.834 144.288 159.226 144.288C158.538 144.288 157.906 144.224 157.33 144.096C156.754 143.984 156.154 143.816 155.53 143.592C155.562 143.016 155.634 142.464 155.746 141.936C155.858 141.392 156.002 140.872 156.178 140.376H156.778L157.834 142.992C158.01 143.12 158.218 143.192 158.458 143.208C158.714 143.224 158.946 143.232 159.154 143.232C159.858 143.232 160.426 143.04 160.858 142.656C161.29 142.272 161.506 141.808 161.506 141.264ZM165.793 138C165.793 136.992 165.921 136.104 166.177 135.336C166.449 134.552 166.833 133.896 167.329 133.368C167.825 132.824 168.417 132.416 169.105 132.144C169.809 131.856 170.585 131.712 171.433 131.712C172.425 131.712 173.281 131.864 174.001 132.168C174.721 132.472 175.305 132.904 175.753 133.464C176.217 134.008 176.553 134.664 176.761 135.432C176.985 136.2 177.097 137.056 177.097 138C177.097 140.016 176.585 141.568 175.561 142.656C174.537 143.744 173.161 144.288 171.433 144.288C170.473 144.288 169.641 144.144 168.937 143.856C168.233 143.552 167.649 143.128 167.185 142.584C166.721 142.024 166.369 141.36 166.129 140.592C165.905 139.808 165.793 138.944 165.793 138ZM168.097 138C168.097 138.72 168.161 139.4 168.289 140.04C168.433 140.68 168.649 141.24 168.937 141.72C169.241 142.184 169.633 142.552 170.113 142.824C170.593 143.096 171.169 143.232 171.841 143.232C172.705 143.232 173.409 142.808 173.953 141.96C174.513 141.112 174.793 139.792 174.793 138C174.793 137.264 174.721 136.584 174.577 135.96C174.449 135.32 174.241 134.768 173.953 134.304C173.665 133.824 173.297 133.448 172.849 133.176C172.401 132.904 171.865 132.768 171.241 132.768C170.297 132.768 169.537 133.192 168.961 134.04C168.385 134.888 168.097 136.208 168.097 138ZM191.923 144H186.763V143.4C187.195 143.176 187.667 142.984 188.179 142.824V137.136C188.179 135.92 188.003 134.96 187.651 134.256C187.299 133.552 186.659 133.2 185.731 133.2C185.331 133.2 184.955 133.272 184.603 133.416C184.267 133.56 183.963 133.76 183.691 134.016C183.435 134.256 183.211 134.536 183.019 134.856C182.827 135.16 182.675 135.48 182.563 135.816V142.824C183.059 142.92 183.539 143.112 184.003 143.4V144H178.819V143.4C179.219 143.192 179.747 143 180.403 142.824V133.392L178.819 133.2V132.576C179.235 132.4 179.715 132.24 180.259 132.096C180.803 131.952 181.371 131.824 181.963 131.712H182.563V134.4H182.587C182.923 133.664 183.403 133.032 184.027 132.504C184.667 131.976 185.435 131.712 186.331 131.712C186.971 131.712 187.539 131.792 188.035 131.952C188.547 132.096 188.971 132.36 189.307 132.744C189.643 133.128 189.899 133.648 190.075 134.304C190.251 134.944 190.339 135.76 190.339 136.752V142.824C190.979 142.936 191.507 143.128 191.923 143.4V144ZM199.405 141.264C199.405 140.816 199.261 140.44 198.973 140.136C198.701 139.816 198.349 139.52 197.917 139.248C197.485 138.976 197.021 138.712 196.525 138.456C196.045 138.2 195.589 137.904 195.157 137.568C194.725 137.216 194.365 136.816 194.077 136.368C193.805 135.92 193.669 135.368 193.669 134.712C193.669 134.28 193.765 133.88 193.957 133.512C194.165 133.144 194.437 132.832 194.773 132.576C195.109 132.304 195.501 132.096 195.949 131.952C196.397 131.792 196.877 131.712 197.389 131.712C198.253 131.712 198.957 131.76 199.501 131.856C200.061 131.952 200.597 132.088 201.109 132.264C201.045 132.776 200.965 133.296 200.869 133.824C200.789 134.336 200.669 134.864 200.509 135.408H199.909L198.997 132.96C198.805 132.88 198.589 132.832 198.349 132.816C198.109 132.784 197.861 132.768 197.605 132.768C197.317 132.768 197.061 132.824 196.837 132.936C196.629 133.032 196.445 133.16 196.285 133.32C196.141 133.48 196.029 133.664 195.949 133.872C195.869 134.08 195.829 134.288 195.829 134.496C195.829 134.928 195.965 135.304 196.237 135.624C196.525 135.928 196.885 136.216 197.317 136.488C197.749 136.744 198.205 137 198.685 137.256C199.181 137.512 199.645 137.8 200.077 138.12C200.509 138.44 200.861 138.816 201.133 139.248C201.421 139.664 201.565 140.168 201.565 140.76C201.565 141.304 201.445 141.792 201.205 142.224C200.981 142.656 200.661 143.024 200.245 143.328C199.845 143.632 199.373 143.864 198.829 144.024C198.301 144.2 197.733 144.288 197.125 144.288C196.437 144.288 195.805 144.224 195.229 144.096C194.653 143.984 194.053 143.816 193.429 143.592C193.461 143.016 193.533 142.464 193.645 141.936C193.757 141.392 193.901 140.872 194.077 140.376H194.677L195.733 142.992C195.909 143.12 196.117 143.192 196.357 143.208C196.613 143.224 196.845 143.232 197.053 143.232C197.757 143.232 198.325 143.04 198.757 142.656C199.189 142.272 199.405 141.808 199.405 141.264ZM219.247 142.32C219.119 142.592 218.919 142.848 218.647 143.088C218.375 143.328 218.063 143.536 217.711 143.712C217.359 143.888 216.975 144.024 216.559 144.12C216.143 144.232 215.719 144.288 215.287 144.288C214.343 144.288 213.511 144.144 212.791 143.856C212.071 143.552 211.471 143.128 210.991 142.584C210.511 142.024 210.143 141.36 209.887 140.592C209.647 139.824 209.527 138.96 209.527 138C209.527 135.952 209.999 134.392 210.943 133.32C211.887 132.248 213.223 131.712 214.951 131.712C215.511 131.712 216.063 131.792 216.607 131.952C217.151 132.096 217.631 132.344 218.047 132.696C218.479 133.048 218.823 133.52 219.079 134.112C219.351 134.688 219.487 135.408 219.487 136.272C219.487 136.544 219.471 136.824 219.439 137.112C219.423 137.384 219.383 137.68 219.319 138H211.831C211.831 138.672 211.911 139.304 212.071 139.896C212.247 140.472 212.503 140.976 212.839 141.408C213.175 141.84 213.599 142.184 214.111 142.44C214.623 142.68 215.223 142.8 215.911 142.8C216.471 142.8 217.039 142.72 217.615 142.56C218.191 142.4 218.623 142.192 218.911 141.936L219.247 142.32ZM214.855 132.768C213.943 132.768 213.247 133.08 212.767 133.704C212.287 134.312 211.999 135.392 211.903 136.944H217.183C217.199 136.8 217.207 136.664 217.207 136.536C217.223 136.392 217.231 136.256 217.231 136.128C217.231 135.104 217.039 134.288 216.655 133.68C216.271 133.072 215.671 132.768 214.855 132.768ZM220.974 132.576C221.582 132.192 222.222 131.92 222.894 131.76V129.72C223.102 129.56 223.342 129.408 223.614 129.264C223.902 129.104 224.182 128.968 224.454 128.856H225.054V132H228.654V133.2H225.054V140.16C225.054 141.12 225.206 141.8 225.51 142.2C225.814 142.6 226.27 142.8 226.878 142.8C227.166 142.8 227.526 142.784 227.958 142.752C228.39 142.704 228.758 142.624 229.062 142.512L229.23 142.872C229.102 143.016 228.918 143.168 228.678 143.328C228.454 143.488 228.19 143.64 227.886 143.784C227.598 143.928 227.278 144.048 226.926 144.144C226.574 144.24 226.214 144.288 225.846 144.288C224.886 144.288 224.15 144.016 223.638 143.472C223.142 142.928 222.894 142.048 222.894 140.832V133.2H220.974V132.576ZM245.196 140.856C245.196 141.208 245.204 141.512 245.22 141.768C245.236 142.024 245.252 142.296 245.268 142.584L246.924 142.824V143.328C246.524 143.536 246.076 143.72 245.58 143.88C245.1 144.04 244.636 144.16 244.188 144.24H243.588C243.428 143.872 243.332 143.472 243.3 143.04C243.268 142.592 243.244 142.104 243.228 141.576H243.108C243.044 141.896 242.916 142.224 242.724 142.56C242.548 142.88 242.308 143.168 242.004 143.424C241.716 143.68 241.372 143.888 240.972 144.048C240.572 144.208 240.116 144.288 239.604 144.288C238.628 144.288 237.828 143.992 237.204 143.4C236.596 142.808 236.292 142.032 236.292 141.072C236.292 140.336 236.436 139.736 236.724 139.272C237.028 138.792 237.468 138.416 238.044 138.144C238.62 137.872 239.332 137.68 240.18 137.568C241.028 137.44 242.012 137.344 243.132 137.28C243.196 136.592 243.212 135.976 243.18 135.432C243.164 134.872 243.076 134.4 242.916 134.016C242.772 133.616 242.548 133.312 242.244 133.104C241.956 132.88 241.572 132.768 241.092 132.768C240.868 132.768 240.612 132.784 240.324 132.816C240.052 132.832 239.78 132.896 239.508 133.008L238.38 135.888H237.756C237.596 135.408 237.452 134.912 237.324 134.4C237.212 133.888 237.14 133.384 237.108 132.888C237.716 132.52 238.388 132.232 239.124 132.024C239.876 131.816 240.708 131.712 241.62 131.712C242.436 131.712 243.084 131.832 243.564 132.072C244.06 132.296 244.436 132.592 244.692 132.96C244.948 133.328 245.116 133.736 245.196 134.184C245.276 134.632 245.316 135.08 245.316 135.528C245.316 136.488 245.292 137.416 245.244 138.312C245.212 139.192 245.196 140.04 245.196 140.856ZM240.564 142.8C240.964 142.8 241.316 142.72 241.62 142.56C241.924 142.4 242.18 142.208 242.388 141.984C242.596 141.76 242.764 141.536 242.892 141.312C243.02 141.072 243.108 140.872 243.156 140.712V138.192C242.228 138.192 241.468 138.24 240.876 138.336C240.284 138.432 239.82 138.584 239.484 138.792C239.148 139 238.916 139.264 238.788 139.584C238.66 139.888 238.596 140.24 238.596 140.64C238.596 141.328 238.772 141.864 239.124 142.248C239.476 142.616 239.956 142.8 240.564 142.8ZM253.545 148.8H248.217V148.2C248.761 147.944 249.289 147.752 249.801 147.624V133.392L248.217 133.2V132.576C248.729 132.352 249.249 132.176 249.777 132.048C250.321 131.904 250.849 131.792 251.361 131.712H251.961V134.4H251.985C252.305 133.584 252.753 132.936 253.329 132.456C253.905 131.96 254.657 131.712 255.585 131.712C257.009 131.712 258.113 132.184 258.897 133.128C259.681 134.072 260.073 135.608 260.073 137.736C260.073 138.744 259.937 139.656 259.665 140.472C259.409 141.288 259.033 141.976 258.537 142.536C258.057 143.096 257.465 143.528 256.761 143.832C256.073 144.136 255.305 144.288 254.457 144.288C253.865 144.288 253.401 144.248 253.065 144.168C252.729 144.104 252.361 143.984 251.961 143.808V147.624C252.217 147.656 252.473 147.712 252.729 147.792C252.985 147.888 253.257 148.024 253.545 148.2V148.8ZM254.817 133.2C254.033 133.2 253.409 133.448 252.945 133.944C252.481 134.44 252.153 135.12 251.961 135.984V142.704C252.249 142.88 252.569 143.016 252.921 143.112C253.289 143.192 253.761 143.232 254.337 143.232C254.865 143.232 255.337 143.096 255.753 142.824C256.185 142.552 256.545 142.168 256.833 141.672C257.137 141.176 257.369 140.6 257.529 139.944C257.689 139.272 257.769 138.536 257.769 137.736C257.769 137.08 257.713 136.48 257.601 135.936C257.505 135.376 257.337 134.896 257.097 134.496C256.873 134.08 256.569 133.76 256.185 133.536C255.817 133.312 255.361 133.2 254.817 133.2ZM267.139 148.8H261.811V148.2C262.355 147.944 262.883 147.752 263.395 147.624V133.392L261.811 133.2V132.576C262.323 132.352 262.843 132.176 263.371 132.048C263.915 131.904 264.443 131.792 264.955 131.712H265.555V134.4H265.579C265.899 133.584 266.347 132.936 266.923 132.456C267.499 131.96 268.251 131.712 269.179 131.712C270.603 131.712 271.707 132.184 272.491 133.128C273.275 134.072 273.667 135.608 273.667 137.736C273.667 138.744 273.531 139.656 273.259 140.472C273.003 141.288 272.627 141.976 272.131 142.536C271.651 143.096 271.059 143.528 270.355 143.832C269.667 144.136 268.899 144.288 268.051 144.288C267.459 144.288 266.995 144.248 266.659 144.168C266.323 144.104 265.955 143.984 265.555 143.808V147.624C265.811 147.656 266.067 147.712 266.323 147.792C266.579 147.888 266.851 148.024 267.139 148.2V148.8ZM268.411 133.2C267.627 133.2 267.003 133.448 266.539 133.944C266.075 134.44 265.747 135.12 265.555 135.984V142.704C265.843 142.88 266.163 143.016 266.515 143.112C266.883 143.192 267.355 143.232 267.931 143.232C268.459 143.232 268.931 143.096 269.347 142.824C269.779 142.552 270.139 142.168 270.427 141.672C270.731 141.176 270.963 140.6 271.123 139.944C271.283 139.272 271.363 138.536 271.363 137.736C271.363 137.08 271.307 136.48 271.195 135.936C271.099 135.376 270.931 134.896 270.691 134.496C270.467 134.08 270.163 133.76 269.779 133.536C269.411 133.312 268.955 133.2 268.411 133.2ZM284.501 140.856C284.501 141.208 284.509 141.512 284.525 141.768C284.541 142.024 284.557 142.296 284.573 142.584L286.229 142.824V143.328C285.829 143.536 285.381 143.72 284.885 143.88C284.405 144.04 283.941 144.16 283.493 144.24H282.893C282.733 143.872 282.637 143.472 282.605 143.04C282.573 142.592 282.549 142.104 282.533 141.576H282.413C282.349 141.896 282.221 142.224 282.029 142.56C281.853 142.88 281.613 143.168 281.309 143.424C281.021 143.68 280.677 143.888 280.277 144.048C279.877 144.208 279.421 144.288 278.909 144.288C277.933 144.288 277.133 143.992 276.509 143.4C275.901 142.808 275.597 142.032 275.597 141.072C275.597 140.336 275.741 139.736 276.029 139.272C276.333 138.792 276.773 138.416 277.349 138.144C277.925 137.872 278.637 137.68 279.485 137.568C280.333 137.44 281.317 137.344 282.437 137.28C282.501 136.592 282.517 135.976 282.485 135.432C282.469 134.872 282.381 134.4 282.221 134.016C282.077 133.616 281.853 133.312 281.549 133.104C281.261 132.88 280.877 132.768 280.397 132.768C280.173 132.768 279.917 132.784 279.629 132.816C279.357 132.832 279.085 132.896 278.813 133.008L277.685 135.888H277.061C276.901 135.408 276.757 134.912 276.629 134.4C276.517 133.888 276.445 133.384 276.413 132.888C277.021 132.52 277.693 132.232 278.429 132.024C279.181 131.816 280.013 131.712 280.925 131.712C281.741 131.712 282.389 131.832 282.869 132.072C283.365 132.296 283.741 132.592 283.997 132.96C284.253 133.328 284.421 133.736 284.501 134.184C284.581 134.632 284.621 135.08 284.621 135.528C284.621 136.488 284.597 137.416 284.549 138.312C284.517 139.192 284.501 140.04 284.501 140.856ZM279.869 142.8C280.269 142.8 280.621 142.72 280.925 142.56C281.229 142.4 281.485 142.208 281.693 141.984C281.901 141.76 282.069 141.536 282.197 141.312C282.325 141.072 282.413 140.872 282.461 140.712V138.192C281.533 138.192 280.773 138.24 280.181 138.336C279.589 138.432 279.125 138.584 278.789 138.792C278.453 139 278.221 139.264 278.093 139.584C277.965 139.888 277.901 140.24 277.901 140.64C277.901 141.328 278.077 141.864 278.429 142.248C278.781 142.616 279.261 142.8 279.869 142.8ZM292.634 133.8C292.458 133.896 292.234 134.096 291.962 134.4C291.706 134.688 291.474 135.12 291.266 135.696V142.824C291.586 142.856 291.906 142.92 292.226 143.016C292.546 143.096 292.866 143.224 293.186 143.4V144H287.522V143.4C287.81 143.24 288.082 143.12 288.338 143.04C288.594 142.96 288.85 142.888 289.106 142.824V133.392L287.522 133.2V132.576C288.034 132.352 288.562 132.176 289.106 132.048C289.65 131.904 290.17 131.792 290.666 131.712H291.266V134.256H291.362C291.506 133.936 291.706 133.616 291.962 133.296C292.234 132.976 292.538 132.688 292.874 132.432C293.226 132.176 293.602 131.984 294.002 131.856C294.418 131.712 294.842 131.664 295.274 131.712C295.386 131.92 295.482 132.152 295.562 132.408C295.658 132.648 295.746 132.904 295.826 133.176V133.8H292.634ZM296.349 132.576C296.957 132.192 297.597 131.92 298.269 131.76V129.72C298.477 129.56 298.717 129.408 298.989 129.264C299.277 129.104 299.557 128.968 299.829 128.856H300.429V132H304.029V133.2H300.429V140.16C300.429 141.12 300.581 141.8 300.885 142.2C301.189 142.6 301.645 142.8 302.253 142.8C302.541 142.8 302.901 142.784 303.333 142.752C303.765 142.704 304.133 142.624 304.437 142.512L304.605 142.872C304.477 143.016 304.293 143.168 304.053 143.328C303.829 143.488 303.565 143.64 303.261 143.784C302.973 143.928 302.653 144.048 302.301 144.144C301.949 144.24 301.589 144.288 301.221 144.288C300.261 144.288 299.525 144.016 299.013 143.472C298.517 142.928 298.269 142.048 298.269 140.832V133.2H296.349V132.576ZM315.599 142.32C315.471 142.592 315.271 142.848 314.999 143.088C314.727 143.328 314.415 143.536 314.063 143.712C313.711 143.888 313.327 144.024 312.911 144.12C312.495 144.232 312.071 144.288 311.639 144.288C310.695 144.288 309.863 144.144 309.143 143.856C308.423 143.552 307.823 143.128 307.343 142.584C306.863 142.024 306.495 141.36 306.239 140.592C305.999 139.824 305.879 138.96 305.879 138C305.879 135.952 306.351 134.392 307.295 133.32C308.239 132.248 309.575 131.712 311.303 131.712C311.863 131.712 312.415 131.792 312.959 131.952C313.503 132.096 313.983 132.344 314.399 132.696C314.831 133.048 315.175 133.52 315.431 134.112C315.703 134.688 315.839 135.408 315.839 136.272C315.839 136.544 315.823 136.824 315.791 137.112C315.775 137.384 315.735 137.68 315.671 138H308.183C308.183 138.672 308.263 139.304 308.423 139.896C308.599 140.472 308.855 140.976 309.191 141.408C309.527 141.84 309.951 142.184 310.463 142.44C310.975 142.68 311.575 142.8 312.263 142.8C312.823 142.8 313.391 142.72 313.967 142.56C314.543 142.4 314.975 142.192 315.263 141.936L315.599 142.32ZM311.207 132.768C310.295 132.768 309.599 133.08 309.119 133.704C308.639 134.312 308.351 135.392 308.255 136.944H313.535C313.551 136.8 313.559 136.664 313.559 136.536C313.575 136.392 313.583 136.256 313.583 136.128C313.583 135.104 313.391 134.288 313.007 133.68C312.623 133.072 312.023 132.768 311.207 132.768ZM330.117 144H324.981V143.4C325.141 143.304 325.333 143.208 325.557 143.112C325.797 143 326.077 142.904 326.397 142.824V137.28C326.397 136.64 326.365 136.064 326.301 135.552C326.253 135.04 326.149 134.616 325.989 134.28C325.845 133.928 325.629 133.664 325.341 133.488C325.053 133.296 324.677 133.2 324.213 133.2C323.861 133.2 323.533 133.272 323.229 133.416C322.941 133.56 322.677 133.752 322.437 133.992C322.213 134.232 322.013 134.504 321.837 134.808C321.677 135.112 321.549 135.432 321.453 135.768V142.824C321.709 142.904 321.949 142.992 322.173 143.088C322.413 143.168 322.645 143.272 322.869 143.4V144H317.709V143.4C317.933 143.288 318.181 143.184 318.453 143.088C318.725 142.992 319.005 142.904 319.293 142.824V133.392L317.709 133.2V132.576C318.221 132.352 318.741 132.176 319.269 132.048C319.813 131.904 320.341 131.792 320.853 131.712H321.453V134.424H321.477C321.733 133.672 322.165 133.032 322.773 132.504C323.397 131.976 324.165 131.712 325.077 131.712C325.461 131.712 325.829 131.752 326.181 131.832C326.533 131.912 326.861 132.064 327.165 132.288C327.469 132.496 327.725 132.792 327.933 133.176C328.141 133.56 328.293 134.056 328.389 134.664C328.677 133.784 329.141 133.072 329.781 132.528C330.421 131.984 331.221 131.712 332.181 131.712C332.773 131.712 333.285 131.792 333.717 131.952C334.165 132.096 334.533 132.36 334.821 132.744C335.109 133.128 335.317 133.648 335.445 134.304C335.589 134.96 335.661 135.792 335.661 136.8V142.824C336.205 142.92 336.733 143.112 337.245 143.4V144H332.085V143.4C332.565 143.144 333.037 142.952 333.501 142.824V136.848C333.501 136.272 333.469 135.76 333.405 135.312C333.357 134.864 333.253 134.488 333.093 134.184C332.933 133.864 332.709 133.624 332.421 133.464C332.133 133.288 331.749 133.2 331.269 133.2C330.501 133.2 329.901 133.464 329.469 133.992C329.053 134.52 328.749 135.192 328.557 136.008V142.824C329.117 142.984 329.637 143.176 330.117 143.4V144ZM348.388 142.32C348.26 142.592 348.06 142.848 347.788 143.088C347.516 143.328 347.204 143.536 346.852 143.712C346.5 143.888 346.116 144.024 345.7 144.12C345.284 144.232 344.86 144.288 344.428 144.288C343.484 144.288 342.652 144.144 341.932 143.856C341.212 143.552 340.612 143.128 340.132 142.584C339.652 142.024 339.284 141.36 339.028 140.592C338.788 139.824 338.668 138.96 338.668 138C338.668 135.952 339.14 134.392 340.084 133.32C341.028 132.248 342.364 131.712 344.092 131.712C344.652 131.712 345.204 131.792 345.748 131.952C346.292 132.096 346.772 132.344 347.188 132.696C347.62 133.048 347.964 133.52 348.22 134.112C348.492 134.688 348.628 135.408 348.628 136.272C348.628 136.544 348.612 136.824 348.58 137.112C348.564 137.384 348.524 137.68 348.46 138H340.972C340.972 138.672 341.052 139.304 341.212 139.896C341.388 140.472 341.644 140.976 341.98 141.408C342.316 141.84 342.74 142.184 343.252 142.44C343.764 142.68 344.364 142.8 345.052 142.8C345.612 142.8 346.18 142.72 346.756 142.56C347.332 142.4 347.764 142.192 348.052 141.936L348.388 142.32ZM343.996 132.768C343.084 132.768 342.388 133.08 341.908 133.704C341.428 134.312 341.14 135.392 341.044 136.944H346.324C346.34 136.8 346.348 136.664 346.348 136.536C346.364 136.392 346.372 136.256 346.372 136.128C346.372 135.104 346.18 134.288 345.796 133.68C345.412 133.072 344.812 132.768 343.996 132.768ZM363.602 144H358.442V143.4C358.874 143.176 359.346 142.984 359.858 142.824V137.136C359.858 135.92 359.682 134.96 359.33 134.256C358.978 133.552 358.338 133.2 357.41 133.2C357.01 133.2 356.634 133.272 356.282 133.416C355.946 133.56 355.642 133.76 355.37 134.016C355.114 134.256 354.89 134.536 354.698 134.856C354.506 135.16 354.354 135.48 354.242 135.816V142.824C354.738 142.92 355.218 143.112 355.682 143.4V144H350.498V143.4C350.898 143.192 351.426 143 352.082 142.824V133.392L350.498 133.2V132.576C350.914 132.4 351.394 132.24 351.938 132.096C352.482 131.952 353.05 131.824 353.642 131.712H354.242V134.4H354.266C354.602 133.664 355.082 133.032 355.706 132.504C356.346 131.976 357.114 131.712 358.01 131.712C358.65 131.712 359.218 131.792 359.714 131.952C360.226 132.096 360.65 132.36 360.986 132.744C361.322 133.128 361.578 133.648 361.754 134.304C361.93 134.944 362.018 135.76 362.018 136.752V142.824C362.658 142.936 363.186 143.128 363.602 143.4V144ZM364.364 132.576C364.972 132.192 365.612 131.92 366.284 131.76V129.72C366.492 129.56 366.732 129.408 367.004 129.264C367.292 129.104 367.572 128.968 367.844 128.856H368.444V132H372.044V133.2H368.444V140.16C368.444 141.12 368.596 141.8 368.9 142.2C369.204 142.6 369.66 142.8 370.268 142.8C370.556 142.8 370.916 142.784 371.348 142.752C371.78 142.704 372.148 142.624 372.452 142.512L372.62 142.872C372.492 143.016 372.308 143.168 372.068 143.328C371.844 143.488 371.58 143.64 371.276 143.784C370.988 143.928 370.668 144.048 370.316 144.144C369.964 144.24 369.604 144.288 369.236 144.288C368.276 144.288 367.54 144.016 367.028 143.472C366.532 142.928 366.284 142.048 366.284 140.832V133.2H364.364V132.576ZM379.991 141.264C379.991 140.816 379.847 140.44 379.559 140.136C379.287 139.816 378.935 139.52 378.503 139.248C378.071 138.976 377.607 138.712 377.111 138.456C376.631 138.2 376.175 137.904 375.743 137.568C375.311 137.216 374.951 136.816 374.663 136.368C374.391 135.92 374.255 135.368 374.255 134.712C374.255 134.28 374.351 133.88 374.543 133.512C374.751 133.144 375.023 132.832 375.359 132.576C375.695 132.304 376.087 132.096 376.535 131.952C376.983 131.792 377.463 131.712 377.975 131.712C378.839 131.712 379.543 131.76 380.087 131.856C380.647 131.952 381.183 132.088 381.695 132.264C381.631 132.776 381.551 133.296 381.455 133.824C381.375 134.336 381.255 134.864 381.095 135.408H380.495L379.583 132.96C379.391 132.88 379.175 132.832 378.935 132.816C378.695 132.784 378.447 132.768 378.191 132.768C377.903 132.768 377.647 132.824 377.423 132.936C377.215 133.032 377.031 133.16 376.871 133.32C376.727 133.48 376.615 133.664 376.535 133.872C376.455 134.08 376.415 134.288 376.415 134.496C376.415 134.928 376.551 135.304 376.823 135.624C377.111 135.928 377.471 136.216 377.903 136.488C378.335 136.744 378.791 137 379.271 137.256C379.767 137.512 380.231 137.8 380.663 138.12C381.095 138.44 381.447 138.816 381.719 139.248C382.007 139.664 382.151 140.168 382.151 140.76C382.151 141.304 382.031 141.792 381.791 142.224C381.567 142.656 381.247 143.024 380.831 143.328C380.431 143.632 379.959 143.864 379.415 144.024C378.887 144.2 378.319 144.288 377.711 144.288C377.023 144.288 376.391 144.224 375.815 144.096C375.239 143.984 374.639 143.816 374.015 143.592C374.047 143.016 374.119 142.464 374.231 141.936C374.343 141.392 374.487 140.872 374.663 140.376H375.263L376.319 142.992C376.495 143.12 376.703 143.192 376.943 143.208C377.199 143.224 377.431 143.232 377.639 143.232C378.343 143.232 378.911 143.04 379.343 142.656C379.775 142.272 379.991 141.808 379.991 141.264Z" fill="#888888"/>
</svg>
