<svg width="389" height="151" viewBox="0 0 389 151" fill="none" xmlns="http://www.w3.org/2000/svg">
<circle cx="149" cy="70" r="50" fill="#020202"/>
<path d="M135.768 51.52H133.368C132.664 49.664 131.928 47.488 131.16 44.992C130.456 42.496 129.848 40.128 129.336 37.888C131.576 35.968 134.264 34.464 137.4 33.376C140.536 32.224 143.928 31.648 147.576 31.648C150.776 31.648 153.528 32.096 155.832 32.992C158.136 33.888 160.024 35.104 161.496 36.64C163.032 38.176 164.152 39.968 164.856 42.016C165.56 44 165.912 46.08 165.912 48.256C165.912 51.84 165.08 55.52 163.416 59.296C161.752 63.072 159.672 66.752 157.176 70.336C154.744 73.856 152.088 77.184 149.208 80.32C146.328 83.456 143.672 86.208 141.24 88.576L137.208 92.32V92.704L142.584 92.128H159.096L163.8 81.376H166.2C166.328 82.784 166.456 84.32 166.584 85.984C166.712 87.648 166.808 89.344 166.872 91.072C167 92.736 167.096 94.368 167.16 95.968C167.224 97.504 167.256 98.848 167.256 100H127.608V96.928C129.016 95.456 130.712 93.664 132.696 91.552C134.744 89.44 136.856 87.104 139.032 84.544C141.208 81.984 143.352 79.264 145.464 76.384C147.64 73.504 149.56 70.592 151.224 67.648C152.888 64.64 154.232 61.664 155.256 58.72C156.344 55.776 156.888 52.96 156.888 50.272C156.888 48.416 156.632 46.656 156.12 44.992C155.672 43.328 154.968 41.888 154.008 40.672C153.048 39.392 151.864 38.4 150.456 37.696C149.112 36.992 147.544 36.64 145.752 36.64C144.408 36.64 143.224 36.736 142.2 36.928C141.176 37.12 140.056 37.408 138.84 37.792L135.768 51.52Z" fill="white"/>
<path d="M1.44 52.304C3.872 50.768 6.432 49.68 9.12 49.04V40.88C9.952 40.24 10.912 39.632 12 39.056C13.152 38.416 14.272 37.872 15.36 37.424H17.76V50H32.16V54.8H17.76V82.64C17.76 86.48 18.368 89.2 19.584 90.8C20.8 92.4 22.624 93.2 25.056 93.2C26.208 93.2 27.648 93.136 29.376 93.008C31.104 92.816 32.576 92.496 33.792 92.048L34.464 93.488C33.952 94.064 33.216 94.672 32.256 95.312C31.36 95.952 30.304 96.56 29.088 97.136C27.936 97.712 26.656 98.192 25.248 98.576C23.84 98.96 22.4 99.152 20.928 99.152C17.088 99.152 14.144 98.064 12.096 95.888C10.112 93.712 9.12 90.192 9.12 85.328V54.8H1.44V52.304ZM39.561 74C39.561 69.968 40.073 66.416 41.097 63.344C42.185 60.208 43.721 57.584 45.705 55.472C47.689 53.296 50.057 51.664 52.809 50.576C55.625 49.424 58.729 48.848 62.121 48.848C66.089 48.848 69.513 49.456 72.393 50.672C75.273 51.888 77.609 53.616 79.401 55.856C81.257 58.032 82.601 60.656 83.433 63.728C84.329 66.8 84.777 70.224 84.777 74C84.777 82.064 82.729 88.272 78.633 92.624C74.537 96.976 69.033 99.152 62.121 99.152C58.281 99.152 54.953 98.576 52.137 97.424C49.321 96.208 46.985 94.512 45.129 92.336C43.273 90.096 41.865 87.44 40.905 84.368C40.009 81.232 39.561 77.776 39.561 74ZM48.777 74C48.777 76.88 49.033 79.6 49.545 82.16C50.121 84.72 50.985 86.96 52.137 88.88C53.353 90.736 54.921 92.208 56.841 93.296C58.761 94.384 61.065 94.928 63.753 94.928C67.209 94.928 70.025 93.232 72.201 89.84C74.441 86.448 75.561 81.168 75.561 74C75.561 71.056 75.273 68.336 74.697 65.84C74.185 63.28 73.353 61.072 72.201 59.216C71.049 57.296 69.577 55.792 67.785 54.704C65.993 53.616 63.849 53.072 61.353 53.072C57.577 53.072 54.537 54.768 52.233 58.16C49.929 61.552 48.777 66.832 48.777 74ZM228.83 57.2C228.126 57.584 227.23 58.384 226.142 59.6C225.118 60.752 224.19 62.48 223.358 64.784V93.296C224.638 93.424 225.918 93.68 227.198 94.064C228.478 94.384 229.758 94.896 231.038 95.6V98H208.382V95.6C209.534 94.96 210.622 94.48 211.646 94.16C212.67 93.84 213.694 93.552 214.718 93.296V55.568L208.382 54.8V52.304C210.43 51.408 212.542 50.704 214.718 50.192C216.894 49.616 218.974 49.168 220.958 48.848H223.358V59.024H223.742C224.318 57.744 225.118 56.464 226.142 55.184C227.23 53.904 228.446 52.752 229.79 51.728C231.198 50.704 232.702 49.936 234.302 49.424C235.966 48.848 237.662 48.656 239.39 48.848C239.838 49.68 240.222 50.608 240.542 51.632C240.926 52.592 241.278 53.616 241.598 54.704V57.2H228.83ZM285.066 91.28C284.554 92.368 283.754 93.392 282.666 94.352C281.578 95.312 280.33 96.144 278.922 96.848C277.514 97.552 275.978 98.096 274.314 98.48C272.65 98.928 270.954 99.152 269.226 99.152C265.45 99.152 262.122 98.576 259.242 97.424C256.362 96.208 253.962 94.512 252.042 92.336C250.122 90.096 248.65 87.44 247.626 84.368C246.666 81.296 246.186 77.84 246.186 74C246.186 65.808 248.074 59.568 251.85 55.28C255.626 50.992 260.97 48.848 267.882 48.848C270.122 48.848 272.33 49.168 274.506 49.808C276.682 50.384 278.602 51.376 280.266 52.784C281.994 54.192 283.37 56.08 284.394 58.448C285.482 60.752 286.026 63.632 286.026 67.088C286.026 68.176 285.962 69.296 285.834 70.448C285.77 71.536 285.61 72.72 285.354 74H255.402C255.402 76.688 255.722 79.216 256.362 81.584C257.066 83.888 258.09 85.904 259.434 87.632C260.778 89.36 262.474 90.736 264.522 91.76C266.57 92.72 268.97 93.2 271.722 93.2C273.962 93.2 276.234 92.88 278.538 92.24C280.842 91.6 282.57 90.768 283.722 89.744L285.066 91.28ZM267.498 53.072C263.85 53.072 261.066 54.32 259.146 56.816C257.226 59.248 256.074 63.568 255.69 69.776H276.81C276.874 69.2 276.906 68.656 276.906 68.144C276.97 67.568 277.002 67.024 277.002 66.512C277.002 62.416 276.234 59.152 274.698 56.72C273.162 54.288 270.762 53.072 267.498 53.072ZM345.923 98H325.283V95.6C327.011 94.704 328.899 93.936 330.947 93.296V70.544C330.947 65.68 330.243 61.84 328.835 59.024C327.427 56.208 324.867 54.8 321.155 54.8C319.555 54.8 318.051 55.088 316.643 55.664C315.299 56.24 314.083 57.04 312.995 58.064C311.971 59.024 311.075 60.144 310.307 61.424C309.539 62.64 308.931 63.92 308.483 65.264V93.296C310.467 93.68 312.387 94.448 314.243 95.6V98H293.507V95.6C295.107 94.768 297.219 94 299.843 93.296V55.568L293.507 54.8V52.304C295.171 51.6 297.091 50.96 299.267 50.384C301.443 49.808 303.715 49.296 306.083 48.848H308.483V59.6H308.579C309.923 56.656 311.843 54.128 314.339 52.016C316.899 49.904 319.971 48.848 323.555 48.848C326.115 48.848 328.387 49.168 330.371 49.808C332.419 50.384 334.115 51.44 335.459 52.976C336.803 54.512 337.827 56.592 338.531 59.216C339.235 61.776 339.587 65.04 339.587 69.008V93.296C342.147 93.744 344.259 94.512 345.923 95.6V98ZM348.971 52.304C351.403 50.768 353.963 49.68 356.651 49.04V40.88C357.483 40.24 358.443 39.632 359.531 39.056C360.683 38.416 361.803 37.872 362.891 37.424H365.291V50H379.691V54.8H365.291V82.64C365.291 86.48 365.899 89.2 367.115 90.8C368.331 92.4 370.155 93.2 372.587 93.2C373.739 93.2 375.179 93.136 376.907 93.008C378.635 92.816 380.107 92.496 381.323 92.048L381.995 93.488C381.483 94.064 380.747 94.672 379.787 95.312C378.891 95.952 377.835 96.56 376.619 97.136C375.467 97.712 374.187 98.192 372.779 98.576C371.371 98.96 369.931 99.152 368.459 99.152C364.619 99.152 361.675 98.064 359.627 95.888C357.643 93.712 356.651 90.192 356.651 85.328V54.8H348.971V52.304Z" fill="#888888"/>
<path d="M133.152 144H128.016V143.4C128.176 143.304 128.368 143.208 128.592 143.112C128.832 143 129.112 142.904 129.432 142.824V137.28C129.432 136.64 129.4 136.064 129.336 135.552C129.288 135.04 129.184 134.616 129.024 134.28C128.88 133.928 128.664 133.664 128.376 133.488C128.088 133.296 127.712 133.2 127.248 133.2C126.896 133.2 126.568 133.272 126.264 133.416C125.976 133.56 125.712 133.752 125.472 133.992C125.248 134.232 125.048 134.504 124.872 134.808C124.712 135.112 124.584 135.432 124.488 135.768V142.824C124.744 142.904 124.984 142.992 125.208 143.088C125.448 143.168 125.68 143.272 125.904 143.4V144H120.744V143.4C120.968 143.288 121.216 143.184 121.488 143.088C121.76 142.992 122.04 142.904 122.328 142.824V133.392L120.744 133.2V132.576C121.256 132.352 121.776 132.176 122.304 132.048C122.848 131.904 123.376 131.792 123.888 131.712H124.488V134.424H124.512C124.768 133.672 125.2 133.032 125.808 132.504C126.432 131.976 127.2 131.712 128.112 131.712C128.496 131.712 128.864 131.752 129.216 131.832C129.568 131.912 129.896 132.064 130.2 132.288C130.504 132.496 130.76 132.792 130.968 133.176C131.176 133.56 131.328 134.056 131.424 134.664C131.712 133.784 132.176 133.072 132.816 132.528C133.456 131.984 134.256 131.712 135.216 131.712C135.808 131.712 136.32 131.792 136.752 131.952C137.2 132.096 137.568 132.36 137.856 132.744C138.144 133.128 138.352 133.648 138.48 134.304C138.624 134.96 138.696 135.792 138.696 136.8V142.824C139.24 142.92 139.768 143.112 140.28 143.4V144H135.12V143.4C135.6 143.144 136.072 142.952 136.536 142.824V136.848C136.536 136.272 136.504 135.76 136.44 135.312C136.392 134.864 136.288 134.488 136.128 134.184C135.968 133.864 135.744 133.624 135.456 133.464C135.168 133.288 134.784 133.2 134.304 133.2C133.536 133.2 132.936 133.464 132.504 133.992C132.088 134.52 131.784 135.192 131.592 136.008V142.824C132.152 142.984 132.672 143.176 133.152 143.4V144ZM150.559 140.856C150.559 141.208 150.567 141.512 150.583 141.768C150.599 142.024 150.615 142.296 150.631 142.584L152.287 142.824V143.328C151.887 143.536 151.439 143.72 150.943 143.88C150.463 144.04 149.999 144.16 149.551 144.24H148.951C148.791 143.872 148.695 143.472 148.663 143.04C148.631 142.592 148.607 142.104 148.591 141.576H148.471C148.407 141.896 148.279 142.224 148.087 142.56C147.911 142.88 147.671 143.168 147.367 143.424C147.079 143.68 146.735 143.888 146.335 144.048C145.935 144.208 145.479 144.288 144.967 144.288C143.991 144.288 143.191 143.992 142.567 143.4C141.959 142.808 141.655 142.032 141.655 141.072C141.655 140.336 141.799 139.736 142.087 139.272C142.391 138.792 142.831 138.416 143.407 138.144C143.983 137.872 144.695 137.68 145.543 137.568C146.391 137.44 147.375 137.344 148.495 137.28C148.559 136.592 148.575 135.976 148.543 135.432C148.527 134.872 148.439 134.4 148.279 134.016C148.135 133.616 147.911 133.312 147.607 133.104C147.319 132.88 146.935 132.768 146.455 132.768C146.231 132.768 145.975 132.784 145.687 132.816C145.415 132.832 145.143 132.896 144.871 133.008L143.743 135.888H143.119C142.959 135.408 142.815 134.912 142.687 134.4C142.575 133.888 142.503 133.384 142.471 132.888C143.079 132.52 143.751 132.232 144.487 132.024C145.239 131.816 146.071 131.712 146.983 131.712C147.799 131.712 148.447 131.832 148.927 132.072C149.423 132.296 149.799 132.592 150.055 132.96C150.311 133.328 150.479 133.736 150.559 134.184C150.639 134.632 150.679 135.08 150.679 135.528C150.679 136.488 150.655 137.416 150.607 138.312C150.575 139.192 150.559 140.04 150.559 140.856ZM145.927 142.8C146.327 142.8 146.679 142.72 146.983 142.56C147.287 142.4 147.543 142.208 147.751 141.984C147.959 141.76 148.127 141.536 148.255 141.312C148.383 141.072 148.471 140.872 148.519 140.712V138.192C147.591 138.192 146.831 138.24 146.239 138.336C145.647 138.432 145.183 138.584 144.847 138.792C144.511 139 144.279 139.264 144.151 139.584C144.023 139.888 143.959 140.24 143.959 140.64C143.959 141.328 144.135 141.864 144.487 142.248C144.839 142.616 145.319 142.8 145.927 142.8ZM159.148 144H153.82V143.4C154.06 143.272 154.308 143.168 154.564 143.088C154.82 142.992 155.1 142.904 155.404 142.824V133.392L153.82 133.2V132.576C154.284 132.384 154.788 132.216 155.332 132.072C155.876 131.928 156.42 131.808 156.964 131.712H157.564V142.824C157.884 142.904 158.172 142.992 158.428 143.088C158.684 143.168 158.924 143.272 159.148 143.4V144ZM154.948 127.92C154.948 127.488 155.084 127.144 155.356 126.888C155.644 126.632 156.02 126.504 156.484 126.504C156.948 126.504 157.316 126.632 157.588 126.888C157.86 127.144 157.996 127.488 157.996 127.92C157.996 128.352 157.86 128.696 157.588 128.952C157.316 129.192 156.948 129.312 156.484 129.312C156.02 129.312 155.644 129.192 155.356 128.952C155.084 128.696 154.948 128.352 154.948 127.92ZM167.135 141.264C167.135 140.816 166.991 140.44 166.703 140.136C166.431 139.816 166.079 139.52 165.647 139.248C165.215 138.976 164.751 138.712 164.255 138.456C163.775 138.2 163.319 137.904 162.887 137.568C162.455 137.216 162.095 136.816 161.807 136.368C161.535 135.92 161.399 135.368 161.399 134.712C161.399 134.28 161.495 133.88 161.687 133.512C161.895 133.144 162.167 132.832 162.503 132.576C162.839 132.304 163.231 132.096 163.679 131.952C164.127 131.792 164.607 131.712 165.119 131.712C165.983 131.712 166.687 131.76 167.231 131.856C167.791 131.952 168.327 132.088 168.839 132.264C168.775 132.776 168.695 133.296 168.599 133.824C168.519 134.336 168.399 134.864 168.239 135.408H167.639L166.727 132.96C166.535 132.88 166.319 132.832 166.079 132.816C165.839 132.784 165.591 132.768 165.335 132.768C165.047 132.768 164.791 132.824 164.567 132.936C164.359 133.032 164.175 133.16 164.015 133.32C163.871 133.48 163.759 133.664 163.679 133.872C163.599 134.08 163.559 134.288 163.559 134.496C163.559 134.928 163.695 135.304 163.967 135.624C164.255 135.928 164.615 136.216 165.047 136.488C165.479 136.744 165.935 137 166.415 137.256C166.911 137.512 167.375 137.8 167.807 138.12C168.239 138.44 168.591 138.816 168.863 139.248C169.151 139.664 169.295 140.168 169.295 140.76C169.295 141.304 169.175 141.792 168.935 142.224C168.711 142.656 168.391 143.024 167.975 143.328C167.575 143.632 167.103 143.864 166.559 144.024C166.031 144.2 165.463 144.288 164.855 144.288C164.167 144.288 163.535 144.224 162.959 144.096C162.383 143.984 161.783 143.816 161.159 143.592C161.191 143.016 161.263 142.464 161.375 141.936C161.487 141.392 161.631 140.872 161.807 140.376H162.407L163.463 142.992C163.639 143.12 163.847 143.192 164.087 143.208C164.343 143.224 164.575 143.232 164.783 143.232C165.487 143.232 166.055 143.04 166.487 142.656C166.919 142.272 167.135 141.808 167.135 141.264ZM171.422 138C171.422 136.992 171.55 136.104 171.806 135.336C172.078 134.552 172.462 133.896 172.958 133.368C173.454 132.824 174.046 132.416 174.734 132.144C175.438 131.856 176.214 131.712 177.062 131.712C178.054 131.712 178.91 131.864 179.63 132.168C180.35 132.472 180.934 132.904 181.382 133.464C181.846 134.008 182.182 134.664 182.39 135.432C182.614 136.2 182.726 137.056 182.726 138C182.726 140.016 182.214 141.568 181.19 142.656C180.166 143.744 178.79 144.288 177.062 144.288C176.102 144.288 175.27 144.144 174.566 143.856C173.862 143.552 173.278 143.128 172.814 142.584C172.35 142.024 171.998 141.36 171.758 140.592C171.534 139.808 171.422 138.944 171.422 138ZM173.726 138C173.726 138.72 173.79 139.4 173.918 140.04C174.062 140.68 174.278 141.24 174.566 141.72C174.87 142.184 175.262 142.552 175.742 142.824C176.222 143.096 176.798 143.232 177.47 143.232C178.334 143.232 179.038 142.808 179.582 141.96C180.142 141.112 180.422 139.792 180.422 138C180.422 137.264 180.35 136.584 180.206 135.96C180.078 135.32 179.87 134.768 179.582 134.304C179.294 133.824 178.926 133.448 178.478 133.176C178.03 132.904 177.494 132.768 176.87 132.768C175.926 132.768 175.166 133.192 174.59 134.04C174.014 134.888 173.726 136.208 173.726 138ZM197.551 144H192.391V143.4C192.823 143.176 193.295 142.984 193.807 142.824V137.136C193.807 135.92 193.631 134.96 193.279 134.256C192.927 133.552 192.287 133.2 191.359 133.2C190.959 133.2 190.583 133.272 190.231 133.416C189.895 133.56 189.591 133.76 189.319 134.016C189.063 134.256 188.839 134.536 188.647 134.856C188.455 135.16 188.303 135.48 188.191 135.816V142.824C188.687 142.92 189.167 143.112 189.631 143.4V144H184.447V143.4C184.847 143.192 185.375 143 186.031 142.824V133.392L184.447 133.2V132.576C184.863 132.4 185.343 132.24 185.887 132.096C186.431 131.952 186.999 131.824 187.591 131.712H188.191V134.4H188.215C188.551 133.664 189.031 133.032 189.655 132.504C190.295 131.976 191.063 131.712 191.959 131.712C192.599 131.712 193.167 131.792 193.663 131.952C194.175 132.096 194.599 132.36 194.935 132.744C195.271 133.128 195.527 133.648 195.703 134.304C195.879 134.944 195.967 135.76 195.967 136.752V142.824C196.607 142.936 197.135 143.128 197.551 143.4V144ZM205.033 141.264C205.033 140.816 204.889 140.44 204.601 140.136C204.329 139.816 203.977 139.52 203.545 139.248C203.113 138.976 202.649 138.712 202.153 138.456C201.673 138.2 201.217 137.904 200.785 137.568C200.353 137.216 199.993 136.816 199.705 136.368C199.433 135.92 199.297 135.368 199.297 134.712C199.297 134.28 199.393 133.88 199.585 133.512C199.793 133.144 200.065 132.832 200.401 132.576C200.737 132.304 201.129 132.096 201.577 131.952C202.025 131.792 202.505 131.712 203.017 131.712C203.881 131.712 204.585 131.76 205.129 131.856C205.689 131.952 206.225 132.088 206.737 132.264C206.673 132.776 206.593 133.296 206.497 133.824C206.417 134.336 206.297 134.864 206.137 135.408H205.537L204.625 132.96C204.433 132.88 204.217 132.832 203.977 132.816C203.737 132.784 203.489 132.768 203.233 132.768C202.945 132.768 202.689 132.824 202.465 132.936C202.257 133.032 202.073 133.16 201.913 133.32C201.769 133.48 201.657 133.664 201.577 133.872C201.497 134.08 201.457 134.288 201.457 134.496C201.457 134.928 201.593 135.304 201.865 135.624C202.153 135.928 202.513 136.216 202.945 136.488C203.377 136.744 203.833 137 204.313 137.256C204.809 137.512 205.273 137.8 205.705 138.12C206.137 138.44 206.489 138.816 206.761 139.248C207.049 139.664 207.193 140.168 207.193 140.76C207.193 141.304 207.073 141.792 206.833 142.224C206.609 142.656 206.289 143.024 205.873 143.328C205.473 143.632 205.001 143.864 204.457 144.024C203.929 144.2 203.361 144.288 202.753 144.288C202.065 144.288 201.433 144.224 200.857 144.096C200.281 143.984 199.681 143.816 199.057 143.592C199.089 143.016 199.161 142.464 199.273 141.936C199.385 141.392 199.529 140.872 199.705 140.376H200.305L201.361 142.992C201.537 143.12 201.745 143.192 201.985 143.208C202.241 143.224 202.473 143.232 202.681 143.232C203.385 143.232 203.953 143.04 204.385 142.656C204.817 142.272 205.033 141.808 205.033 141.264ZM224.876 142.32C224.748 142.592 224.548 142.848 224.276 143.088C224.004 143.328 223.692 143.536 223.34 143.712C222.988 143.888 222.604 144.024 222.188 144.12C221.772 144.232 221.348 144.288 220.916 144.288C219.972 144.288 219.14 144.144 218.42 143.856C217.7 143.552 217.1 143.128 216.62 142.584C216.14 142.024 215.772 141.36 215.516 140.592C215.276 139.824 215.156 138.96 215.156 138C215.156 135.952 215.628 134.392 216.572 133.32C217.516 132.248 218.852 131.712 220.58 131.712C221.14 131.712 221.692 131.792 222.236 131.952C222.78 132.096 223.26 132.344 223.676 132.696C224.108 133.048 224.452 133.52 224.708 134.112C224.98 134.688 225.116 135.408 225.116 136.272C225.116 136.544 225.1 136.824 225.068 137.112C225.052 137.384 225.012 137.68 224.948 138H217.46C217.46 138.672 217.54 139.304 217.7 139.896C217.876 140.472 218.132 140.976 218.468 141.408C218.804 141.84 219.228 142.184 219.74 142.44C220.252 142.68 220.852 142.8 221.54 142.8C222.1 142.8 222.668 142.72 223.244 142.56C223.82 142.4 224.252 142.192 224.54 141.936L224.876 142.32ZM220.484 132.768C219.572 132.768 218.876 133.08 218.396 133.704C217.916 134.312 217.628 135.392 217.532 136.944H222.812C222.828 136.8 222.836 136.664 222.836 136.536C222.852 136.392 222.86 136.256 222.86 136.128C222.86 135.104 222.668 134.288 222.284 133.68C221.9 133.072 221.3 132.768 220.484 132.768ZM226.602 132.576C227.21 132.192 227.85 131.92 228.522 131.76V129.72C228.73 129.56 228.97 129.408 229.242 129.264C229.53 129.104 229.81 128.968 230.082 128.856H230.682V132H234.282V133.2H230.682V140.16C230.682 141.12 230.834 141.8 231.138 142.2C231.442 142.6 231.898 142.8 232.506 142.8C232.794 142.8 233.154 142.784 233.586 142.752C234.018 142.704 234.386 142.624 234.69 142.512L234.858 142.872C234.73 143.016 234.546 143.168 234.306 143.328C234.082 143.488 233.818 143.64 233.514 143.784C233.226 143.928 232.906 144.048 232.554 144.144C232.202 144.24 231.842 144.288 231.474 144.288C230.514 144.288 229.778 144.016 229.266 143.472C228.77 142.928 228.522 142.048 228.522 140.832V133.2H226.602V132.576ZM250.824 140.856C250.824 141.208 250.832 141.512 250.848 141.768C250.864 142.024 250.88 142.296 250.896 142.584L252.552 142.824V143.328C252.152 143.536 251.704 143.72 251.208 143.88C250.728 144.04 250.264 144.16 249.816 144.24H249.216C249.056 143.872 248.96 143.472 248.928 143.04C248.896 142.592 248.872 142.104 248.856 141.576H248.736C248.672 141.896 248.544 142.224 248.352 142.56C248.176 142.88 247.936 143.168 247.632 143.424C247.344 143.68 247 143.888 246.6 144.048C246.2 144.208 245.744 144.288 245.232 144.288C244.256 144.288 243.456 143.992 242.832 143.4C242.224 142.808 241.92 142.032 241.92 141.072C241.92 140.336 242.064 139.736 242.352 139.272C242.656 138.792 243.096 138.416 243.672 138.144C244.248 137.872 244.96 137.68 245.808 137.568C246.656 137.44 247.64 137.344 248.76 137.28C248.824 136.592 248.84 135.976 248.808 135.432C248.792 134.872 248.704 134.4 248.544 134.016C248.4 133.616 248.176 133.312 247.872 133.104C247.584 132.88 247.2 132.768 246.72 132.768C246.496 132.768 246.24 132.784 245.952 132.816C245.68 132.832 245.408 132.896 245.136 133.008L244.008 135.888H243.384C243.224 135.408 243.08 134.912 242.952 134.4C242.84 133.888 242.768 133.384 242.736 132.888C243.344 132.52 244.016 132.232 244.752 132.024C245.504 131.816 246.336 131.712 247.248 131.712C248.064 131.712 248.712 131.832 249.192 132.072C249.688 132.296 250.064 132.592 250.32 132.96C250.576 133.328 250.744 133.736 250.824 134.184C250.904 134.632 250.944 135.08 250.944 135.528C250.944 136.488 250.92 137.416 250.872 138.312C250.84 139.192 250.824 140.04 250.824 140.856ZM246.192 142.8C246.592 142.8 246.944 142.72 247.248 142.56C247.552 142.4 247.808 142.208 248.016 141.984C248.224 141.76 248.392 141.536 248.52 141.312C248.648 141.072 248.736 140.872 248.784 140.712V138.192C247.856 138.192 247.096 138.24 246.504 138.336C245.912 138.432 245.448 138.584 245.112 138.792C244.776 139 244.544 139.264 244.416 139.584C244.288 139.888 244.224 140.24 244.224 140.64C244.224 141.328 244.4 141.864 244.752 142.248C245.104 142.616 245.584 142.8 246.192 142.8ZM259.174 148.8H253.846V148.2C254.39 147.944 254.918 147.752 255.43 147.624V133.392L253.846 133.2V132.576C254.358 132.352 254.878 132.176 255.406 132.048C255.95 131.904 256.478 131.792 256.99 131.712H257.59V134.4H257.614C257.934 133.584 258.382 132.936 258.958 132.456C259.534 131.96 260.286 131.712 261.214 131.712C262.638 131.712 263.742 132.184 264.526 133.128C265.31 134.072 265.702 135.608 265.702 137.736C265.702 138.744 265.566 139.656 265.294 140.472C265.038 141.288 264.662 141.976 264.166 142.536C263.686 143.096 263.094 143.528 262.39 143.832C261.702 144.136 260.934 144.288 260.086 144.288C259.494 144.288 259.03 144.248 258.694 144.168C258.358 144.104 257.99 143.984 257.59 143.808V147.624C257.846 147.656 258.102 147.712 258.358 147.792C258.614 147.888 258.886 148.024 259.174 148.2V148.8ZM260.446 133.2C259.662 133.2 259.038 133.448 258.574 133.944C258.11 134.44 257.782 135.12 257.59 135.984V142.704C257.878 142.88 258.198 143.016 258.55 143.112C258.918 143.192 259.39 143.232 259.966 143.232C260.494 143.232 260.966 143.096 261.382 142.824C261.814 142.552 262.174 142.168 262.462 141.672C262.766 141.176 262.998 140.6 263.158 139.944C263.318 139.272 263.398 138.536 263.398 137.736C263.398 137.08 263.342 136.48 263.23 135.936C263.134 135.376 262.966 134.896 262.726 134.496C262.502 134.08 262.198 133.76 261.814 133.536C261.446 133.312 260.99 133.2 260.446 133.2ZM272.767 148.8H267.439V148.2C267.983 147.944 268.511 147.752 269.023 147.624V133.392L267.439 133.2V132.576C267.951 132.352 268.471 132.176 268.999 132.048C269.543 131.904 270.071 131.792 270.583 131.712H271.183V134.4H271.207C271.527 133.584 271.975 132.936 272.551 132.456C273.127 131.96 273.879 131.712 274.807 131.712C276.231 131.712 277.335 132.184 278.119 133.128C278.903 134.072 279.295 135.608 279.295 137.736C279.295 138.744 279.159 139.656 278.887 140.472C278.631 141.288 278.255 141.976 277.759 142.536C277.279 143.096 276.687 143.528 275.983 143.832C275.295 144.136 274.527 144.288 273.679 144.288C273.087 144.288 272.623 144.248 272.287 144.168C271.951 144.104 271.583 143.984 271.183 143.808V147.624C271.439 147.656 271.695 147.712 271.951 147.792C272.207 147.888 272.479 148.024 272.767 148.2V148.8ZM274.039 133.2C273.255 133.2 272.631 133.448 272.167 133.944C271.703 134.44 271.375 135.12 271.183 135.984V142.704C271.471 142.88 271.791 143.016 272.143 143.112C272.511 143.192 272.983 143.232 273.559 143.232C274.087 143.232 274.559 143.096 274.975 142.824C275.407 142.552 275.767 142.168 276.055 141.672C276.359 141.176 276.591 140.6 276.751 139.944C276.911 139.272 276.991 138.536 276.991 137.736C276.991 137.08 276.935 136.48 276.823 135.936C276.727 135.376 276.559 134.896 276.319 134.496C276.095 134.08 275.791 133.76 275.407 133.536C275.039 133.312 274.583 133.2 274.039 133.2ZM290.129 140.856C290.129 141.208 290.137 141.512 290.153 141.768C290.169 142.024 290.185 142.296 290.201 142.584L291.857 142.824V143.328C291.457 143.536 291.009 143.72 290.513 143.88C290.033 144.04 289.569 144.16 289.121 144.24H288.521C288.361 143.872 288.265 143.472 288.233 143.04C288.201 142.592 288.177 142.104 288.161 141.576H288.041C287.977 141.896 287.849 142.224 287.657 142.56C287.481 142.88 287.241 143.168 286.937 143.424C286.649 143.68 286.305 143.888 285.905 144.048C285.505 144.208 285.049 144.288 284.537 144.288C283.561 144.288 282.761 143.992 282.137 143.4C281.529 142.808 281.225 142.032 281.225 141.072C281.225 140.336 281.369 139.736 281.657 139.272C281.961 138.792 282.401 138.416 282.977 138.144C283.553 137.872 284.265 137.68 285.113 137.568C285.961 137.44 286.945 137.344 288.065 137.28C288.129 136.592 288.145 135.976 288.113 135.432C288.097 134.872 288.009 134.4 287.849 134.016C287.705 133.616 287.481 133.312 287.177 133.104C286.889 132.88 286.505 132.768 286.025 132.768C285.801 132.768 285.545 132.784 285.257 132.816C284.985 132.832 284.713 132.896 284.441 133.008L283.313 135.888H282.689C282.529 135.408 282.385 134.912 282.257 134.4C282.145 133.888 282.073 133.384 282.041 132.888C282.649 132.52 283.321 132.232 284.057 132.024C284.809 131.816 285.641 131.712 286.553 131.712C287.369 131.712 288.017 131.832 288.497 132.072C288.993 132.296 289.369 132.592 289.625 132.96C289.881 133.328 290.049 133.736 290.129 134.184C290.209 134.632 290.249 135.08 290.249 135.528C290.249 136.488 290.225 137.416 290.177 138.312C290.145 139.192 290.129 140.04 290.129 140.856ZM285.497 142.8C285.897 142.8 286.249 142.72 286.553 142.56C286.857 142.4 287.113 142.208 287.321 141.984C287.529 141.76 287.697 141.536 287.825 141.312C287.953 141.072 288.041 140.872 288.089 140.712V138.192C287.161 138.192 286.401 138.24 285.809 138.336C285.217 138.432 284.753 138.584 284.417 138.792C284.081 139 283.849 139.264 283.721 139.584C283.593 139.888 283.529 140.24 283.529 140.64C283.529 141.328 283.705 141.864 284.057 142.248C284.409 142.616 284.889 142.8 285.497 142.8ZM298.262 133.8C298.086 133.896 297.862 134.096 297.59 134.4C297.334 134.688 297.102 135.12 296.894 135.696V142.824C297.214 142.856 297.534 142.92 297.854 143.016C298.174 143.096 298.494 143.224 298.814 143.4V144H293.15V143.4C293.438 143.24 293.71 143.12 293.966 143.04C294.222 142.96 294.478 142.888 294.734 142.824V133.392L293.15 133.2V132.576C293.662 132.352 294.19 132.176 294.734 132.048C295.278 131.904 295.798 131.792 296.294 131.712H296.894V134.256H296.99C297.134 133.936 297.334 133.616 297.59 133.296C297.862 132.976 298.166 132.688 298.502 132.432C298.854 132.176 299.23 131.984 299.63 131.856C300.046 131.712 300.47 131.664 300.902 131.712C301.014 131.92 301.11 132.152 301.19 132.408C301.286 132.648 301.374 132.904 301.454 133.176V133.8H298.262ZM301.977 132.576C302.585 132.192 303.225 131.92 303.897 131.76V129.72C304.105 129.56 304.345 129.408 304.617 129.264C304.905 129.104 305.185 128.968 305.457 128.856H306.057V132H309.657V133.2H306.057V140.16C306.057 141.12 306.209 141.8 306.513 142.2C306.817 142.6 307.273 142.8 307.881 142.8C308.169 142.8 308.529 142.784 308.961 142.752C309.393 142.704 309.761 142.624 310.065 142.512L310.233 142.872C310.105 143.016 309.921 143.168 309.681 143.328C309.457 143.488 309.193 143.64 308.889 143.784C308.601 143.928 308.281 144.048 307.929 144.144C307.577 144.24 307.217 144.288 306.849 144.288C305.889 144.288 305.153 144.016 304.641 143.472C304.145 142.928 303.897 142.048 303.897 140.832V133.2H301.977V132.576ZM321.227 142.32C321.099 142.592 320.899 142.848 320.627 143.088C320.355 143.328 320.043 143.536 319.691 143.712C319.339 143.888 318.955 144.024 318.539 144.12C318.123 144.232 317.699 144.288 317.267 144.288C316.323 144.288 315.491 144.144 314.771 143.856C314.051 143.552 313.451 143.128 312.971 142.584C312.491 142.024 312.123 141.36 311.867 140.592C311.627 139.824 311.507 138.96 311.507 138C311.507 135.952 311.979 134.392 312.923 133.32C313.867 132.248 315.203 131.712 316.931 131.712C317.491 131.712 318.043 131.792 318.587 131.952C319.131 132.096 319.611 132.344 320.027 132.696C320.459 133.048 320.803 133.52 321.059 134.112C321.331 134.688 321.467 135.408 321.467 136.272C321.467 136.544 321.451 136.824 321.419 137.112C321.403 137.384 321.363 137.68 321.299 138H313.811C313.811 138.672 313.891 139.304 314.051 139.896C314.227 140.472 314.483 140.976 314.819 141.408C315.155 141.84 315.579 142.184 316.091 142.44C316.603 142.68 317.203 142.8 317.891 142.8C318.451 142.8 319.019 142.72 319.595 142.56C320.171 142.4 320.603 142.192 320.891 141.936L321.227 142.32ZM316.835 132.768C315.923 132.768 315.227 133.08 314.747 133.704C314.267 134.312 313.979 135.392 313.883 136.944H319.163C319.179 136.8 319.187 136.664 319.187 136.536C319.203 136.392 319.211 136.256 319.211 136.128C319.211 135.104 319.019 134.288 318.635 133.68C318.251 133.072 317.651 132.768 316.835 132.768ZM335.746 144H330.61V143.4C330.77 143.304 330.962 143.208 331.186 143.112C331.426 143 331.706 142.904 332.026 142.824V137.28C332.026 136.64 331.994 136.064 331.93 135.552C331.882 135.04 331.778 134.616 331.618 134.28C331.474 133.928 331.258 133.664 330.97 133.488C330.682 133.296 330.306 133.2 329.842 133.2C329.49 133.2 329.162 133.272 328.858 133.416C328.57 133.56 328.306 133.752 328.066 133.992C327.842 134.232 327.642 134.504 327.466 134.808C327.306 135.112 327.178 135.432 327.082 135.768V142.824C327.338 142.904 327.578 142.992 327.802 143.088C328.042 143.168 328.274 143.272 328.498 143.4V144H323.338V143.4C323.562 143.288 323.81 143.184 324.082 143.088C324.354 142.992 324.634 142.904 324.922 142.824V133.392L323.338 133.2V132.576C323.85 132.352 324.37 132.176 324.898 132.048C325.442 131.904 325.97 131.792 326.482 131.712H327.082V134.424H327.106C327.362 133.672 327.794 133.032 328.402 132.504C329.026 131.976 329.794 131.712 330.706 131.712C331.09 131.712 331.458 131.752 331.81 131.832C332.162 131.912 332.49 132.064 332.794 132.288C333.098 132.496 333.354 132.792 333.562 133.176C333.77 133.56 333.922 134.056 334.018 134.664C334.306 133.784 334.77 133.072 335.41 132.528C336.05 131.984 336.85 131.712 337.81 131.712C338.402 131.712 338.914 131.792 339.346 131.952C339.794 132.096 340.162 132.36 340.45 132.744C340.738 133.128 340.946 133.648 341.074 134.304C341.218 134.96 341.29 135.792 341.29 136.8V142.824C341.834 142.92 342.362 143.112 342.874 143.4V144H337.714V143.4C338.194 143.144 338.666 142.952 339.13 142.824V136.848C339.13 136.272 339.098 135.76 339.034 135.312C338.986 134.864 338.882 134.488 338.722 134.184C338.562 133.864 338.338 133.624 338.05 133.464C337.762 133.288 337.378 133.2 336.898 133.2C336.13 133.2 335.53 133.464 335.098 133.992C334.682 134.52 334.378 135.192 334.186 136.008V142.824C334.746 142.984 335.266 143.176 335.746 143.4V144ZM354.017 142.32C353.889 142.592 353.689 142.848 353.417 143.088C353.145 143.328 352.833 143.536 352.481 143.712C352.129 143.888 351.745 144.024 351.329 144.12C350.913 144.232 350.489 144.288 350.057 144.288C349.113 144.288 348.281 144.144 347.561 143.856C346.84 143.552 346.241 143.128 345.761 142.584C345.281 142.024 344.913 141.36 344.657 140.592C344.417 139.824 344.297 138.96 344.297 138C344.297 135.952 344.769 134.392 345.713 133.32C346.657 132.248 347.993 131.712 349.721 131.712C350.281 131.712 350.833 131.792 351.377 131.952C351.921 132.096 352.401 132.344 352.817 132.696C353.249 133.048 353.593 133.52 353.849 134.112C354.121 134.688 354.257 135.408 354.257 136.272C354.257 136.544 354.241 136.824 354.209 137.112C354.193 137.384 354.153 137.68 354.089 138H346.601C346.601 138.672 346.681 139.304 346.84 139.896C347.017 140.472 347.273 140.976 347.609 141.408C347.945 141.84 348.369 142.184 348.881 142.44C349.393 142.68 349.993 142.8 350.681 142.8C351.241 142.8 351.809 142.72 352.385 142.56C352.961 142.4 353.393 142.192 353.681 141.936L354.017 142.32ZM349.625 132.768C348.713 132.768 348.017 133.08 347.537 133.704C347.057 134.312 346.769 135.392 346.673 136.944H351.953C351.969 136.8 351.977 136.664 351.977 136.536C351.993 136.392 352.001 136.256 352.001 136.128C352.001 135.104 351.809 134.288 351.425 133.68C351.041 133.072 350.441 132.768 349.625 132.768ZM369.231 144H364.071V143.4C364.503 143.176 364.975 142.984 365.487 142.824V137.136C365.487 135.92 365.311 134.96 364.959 134.256C364.607 133.552 363.967 133.2 363.039 133.2C362.639 133.2 362.263 133.272 361.911 133.416C361.575 133.56 361.271 133.76 360.999 134.016C360.743 134.256 360.519 134.536 360.327 134.856C360.135 135.16 359.983 135.48 359.871 135.816V142.824C360.367 142.92 360.847 143.112 361.311 143.4V144H356.127V143.4C356.527 143.192 357.055 143 357.711 142.824V133.392L356.127 133.2V132.576C356.543 132.4 357.023 132.24 357.567 132.096C358.111 131.952 358.679 131.824 359.271 131.712H359.871V134.4H359.895C360.231 133.664 360.711 133.032 361.335 132.504C361.975 131.976 362.743 131.712 363.639 131.712C364.279 131.712 364.847 131.792 365.343 131.952C365.855 132.096 366.279 132.36 366.615 132.744C366.951 133.128 367.207 133.648 367.383 134.304C367.559 134.944 367.647 135.76 367.647 136.752V142.824C368.287 142.936 368.815 143.128 369.231 143.4V144ZM369.993 132.576C370.601 132.192 371.241 131.92 371.913 131.76V129.72C372.121 129.56 372.361 129.408 372.633 129.264C372.921 129.104 373.201 128.968 373.473 128.856H374.073V132H377.673V133.2H374.073V140.16C374.073 141.12 374.225 141.8 374.529 142.2C374.833 142.6 375.289 142.8 375.897 142.8C376.185 142.8 376.545 142.784 376.977 142.752C377.409 142.704 377.777 142.624 378.081 142.512L378.249 142.872C378.121 143.016 377.937 143.168 377.697 143.328C377.473 143.488 377.209 143.64 376.905 143.784C376.617 143.928 376.297 144.048 375.945 144.144C375.593 144.24 375.233 144.288 374.865 144.288C373.905 144.288 373.169 144.016 372.657 143.472C372.161 142.928 371.913 142.048 371.913 140.832V133.2H369.993V132.576ZM385.619 141.264C385.619 140.816 385.475 140.44 385.187 140.136C384.915 139.816 384.563 139.52 384.131 139.248C383.699 138.976 383.235 138.712 382.739 138.456C382.259 138.2 381.803 137.904 381.371 137.568C380.939 137.216 380.579 136.816 380.291 136.368C380.019 135.92 379.883 135.368 379.883 134.712C379.883 134.28 379.979 133.88 380.171 133.512C380.379 133.144 380.651 132.832 380.987 132.576C381.323 132.304 381.715 132.096 382.163 131.952C382.611 131.792 383.091 131.712 383.603 131.712C384.467 131.712 385.171 131.76 385.715 131.856C386.275 131.952 386.811 132.088 387.323 132.264C387.259 132.776 387.179 133.296 387.083 133.824C387.003 134.336 386.883 134.864 386.723 135.408H386.123L385.211 132.96C385.019 132.88 384.803 132.832 384.563 132.816C384.323 132.784 384.075 132.768 383.819 132.768C383.531 132.768 383.275 132.824 383.051 132.936C382.843 133.032 382.659 133.16 382.499 133.32C382.355 133.48 382.243 133.664 382.163 133.872C382.083 134.08 382.043 134.288 382.043 134.496C382.043 134.928 382.179 135.304 382.451 135.624C382.739 135.928 383.099 136.216 383.531 136.488C383.963 136.744 384.419 137 384.899 137.256C385.395 137.512 385.859 137.8 386.291 138.12C386.723 138.44 387.075 138.816 387.347 139.248C387.635 139.664 387.779 140.168 387.779 140.76C387.779 141.304 387.659 141.792 387.419 142.224C387.195 142.656 386.875 143.024 386.459 143.328C386.059 143.632 385.587 143.864 385.043 144.024C384.515 144.2 383.947 144.288 383.339 144.288C382.651 144.288 382.019 144.224 381.443 144.096C380.867 143.984 380.267 143.816 379.643 143.592C379.675 143.016 379.747 142.464 379.859 141.936C379.971 141.392 380.115 140.872 380.291 140.376H380.891L381.947 142.992C382.123 143.12 382.331 143.192 382.571 143.208C382.827 143.224 383.059 143.232 383.267 143.232C383.971 143.232 384.539 143.04 384.971 142.656C385.403 142.272 385.619 141.808 385.619 141.264Z" fill="#888888"/>
</svg>
